<svg width="715" height="672" viewBox="0 0 715 672" fill="none" xmlns="http://www.w3.org/2000/svg">
<g clip-path="url(#clip0_974_2069)">
<path d="M90.8532 378.901C88.219 383.602 82.4499 384.248 73.2065 383.356C66.2558 382.681 59.9166 382.161 52.9648 378.37C48.0995 375.719 44.2478 372.133 41.4366 368.65C38.3902 364.876 34.1376 360.569 36.2219 356.29C39.0868 350.412 55.6516 345.462 71.7371 353.557C89.4073 362.453 93.4304 374.306 90.8532 378.901Z" fill="url(#paint0_linear_974_2069)"/>
<path d="M619.024 347.891C608.252 355.923 591.16 351.236 591.16 351.236C591.16 351.236 591.54 333.527 602.318 325.501C613.089 317.468 630.173 322.149 630.173 322.149C630.173 322.149 629.793 339.858 619.024 347.891Z" fill="url(#paint1_linear_974_2069)"/>
<path d="M70.0552 195.288C80.2931 207.137 100.925 206.099 100.925 206.099C100.925 206.099 104.944 185.849 94.6952 174.005C84.4573 162.156 63.8358 163.187 63.8358 163.187C63.8358 163.187 59.8173 183.438 70.0552 195.288Z" fill="url(#paint2_linear_974_2069)"/>
<path d="M320.675 572.069C315.796 572.069 311.841 568.114 311.841 563.234C311.841 558.355 315.796 554.4 320.675 554.4C325.554 554.4 329.51 558.355 329.51 563.234C329.51 568.114 325.554 572.069 320.675 572.069Z" fill="#E1E4E5"/>
<path d="M397.71 499.903C392.347 499.903 387.999 495.555 387.999 490.191C387.999 484.828 392.347 480.48 397.71 480.48C403.074 480.48 407.422 484.828 407.422 490.191C407.422 495.555 403.074 499.903 397.71 499.903Z" fill="#E1E4E5"/>
<path d="M588.478 202.318C584.148 202.318 580.638 198.808 580.638 194.478C580.638 190.148 584.148 186.638 588.478 186.638C592.808 186.638 596.318 190.148 596.318 194.478C596.318 198.808 592.808 202.318 588.478 202.318Z" fill="#E1E4E5"/>
<path d="M43.0002 235.606C44.3861 240.778 41.3166 246.095 36.1442 247.481C30.9718 248.867 25.6552 245.797 24.2692 240.625C22.8833 235.453 25.9528 230.136 31.1252 228.75C36.2976 227.364 41.6142 230.434 43.0002 235.606Z" fill="#E1E4E5"/>
<path d="M188.099 152.358C180.975 152.358 175.2 146.583 175.2 139.459C175.2 132.335 180.975 126.56 188.099 126.56C195.223 126.56 200.998 132.335 200.998 139.459C200.998 146.583 195.223 152.358 188.099 152.358Z" fill="#E1E4E5"/>
<path d="M661.789 458.855C656.309 458.855 651.867 455.301 651.867 450.917C651.867 446.534 656.309 442.98 661.789 442.98C667.269 442.98 671.711 446.534 671.711 450.917C671.711 455.301 667.269 458.855 661.789 458.855Z" fill="#E1E4E5"/>
<path d="M89.4649 528.332C89.4649 536.203 83.0841 542.584 75.2129 542.584C67.3418 542.584 60.9609 536.203 60.9609 528.332C60.9609 520.461 67.3418 514.08 75.2129 514.08C83.0841 514.08 89.4649 520.461 89.4649 528.332Z" fill="#E1E4E5"/>
<path d="M566.666 439.021H566.926C568.462 460.799 584.658 461.135 584.658 461.135C584.658 461.135 566.799 461.484 566.799 486.648C566.799 461.484 548.939 461.135 548.939 461.135C548.939 461.135 565.129 460.799 566.666 439.021Z" fill="#E1E4E5"/>
<path d="M174.698 532.424H511.277C537.832 532.424 559.36 510.897 559.36 484.341V147.762C559.36 121.207 537.832 99.6797 511.277 99.6797H270.863C244.308 99.6797 222.781 121.207 222.781 147.762V484.341C222.781 510.897 201.253 532.424 174.698 532.424C148.142 532.424 126.615 510.897 126.615 484.341V219.887C126.615 193.331 148.142 171.804 174.698 171.804H222.781M306.926 195.846H475.216M306.926 292.012H475.216M306.926 388.179H475.216" stroke="#E1E4E5" stroke-width="3.98441" stroke-linecap="round" stroke-linejoin="round"/>
<path fill-rule="evenodd" clip-rule="evenodd" d="M132.273 348.928C132.273 404.702 177.483 449.912 233.257 449.912C289.03 449.912 334.24 404.702 334.24 348.928C334.24 293.155 289.03 247.944 233.257 247.944C177.483 247.944 132.273 293.155 132.273 348.928Z" fill="white" stroke="#D60B52" stroke-width="20.0037" stroke-linecap="round" stroke-linejoin="round"/>
<path d="M110.238 471.944L153.386 428.796" stroke="#D60B52" stroke-width="20.0037" stroke-linecap="round" stroke-linejoin="round"/>
<path fill-rule="evenodd" clip-rule="evenodd" d="M433.92 471.193V424.635C433.921 416.94 435.94 409.378 439.776 402.707C443.612 396.035 449.131 390.486 455.781 386.614L499.776 361.008C506.496 357.099 514.132 355.04 521.906 355.04C529.68 355.04 537.316 357.099 544.036 361.008L588.031 386.614C594.684 390.484 600.205 396.032 604.043 402.704C607.88 409.376 609.9 416.938 609.901 424.635V471.193C609.9 478.888 607.881 486.449 604.045 493.121C600.209 499.793 594.691 505.342 588.041 509.214L544.045 534.82C537.325 538.729 529.69 540.788 521.916 540.788C514.141 540.788 506.506 538.729 499.786 534.82L455.79 509.214C449.137 505.344 443.616 499.796 439.778 493.124C435.941 486.452 433.921 478.89 433.92 471.193Z" fill="#D60B52"/>
<path d="M521.911 447.915V403.919M521.901 482.133C521.58 482.133 521.262 482.196 520.966 482.318C520.67 482.441 520.401 482.622 520.175 482.849C519.948 483.076 519.769 483.346 519.648 483.643C519.527 483.939 519.465 484.257 519.467 484.578C519.467 485.062 519.611 485.535 519.88 485.937C520.149 486.34 520.531 486.653 520.979 486.838C521.426 487.023 521.918 487.07 522.393 486.975C522.868 486.88 523.303 486.646 523.645 486.303C523.986 485.96 524.218 485.523 524.311 485.048C524.404 484.573 524.354 484.081 524.167 483.635C523.981 483.188 523.666 482.807 523.262 482.54C522.858 482.272 522.385 482.131 521.901 482.133Z" stroke="white" stroke-width="13.043" stroke-linecap="round" stroke-linejoin="round"/>
</g>
<defs>
<linearGradient id="paint0_linear_974_2069" x1="73.1068" y1="409.37" x2="49.6271" y2="303.862" gradientUnits="userSpaceOnUse">
<stop stop-color="white"/>
<stop offset="1" stop-color="#EEEEEE"/>
</linearGradient>
<linearGradient id="paint1_linear_974_2069" x1="576.892" y1="374.502" x2="660.474" y2="279.443" gradientUnits="userSpaceOnUse">
<stop stop-color="white"/>
<stop offset="1" stop-color="#EEEEEE"/>
</linearGradient>
<linearGradient id="paint2_linear_974_2069" x1="111.314" y1="236.165" x2="40.0874" y2="106.968" gradientUnits="userSpaceOnUse">
<stop stop-color="white"/>
<stop offset="1" stop-color="#EEEEEE"/>
</linearGradient>
<clipPath id="clip0_974_2069">
<rect width="715" height="672" fill="white"/>
</clipPath>
</defs>
</svg>
